<svg xmlns="http://www.w3.org/2000/svg" width="257.269" height="267.337" viewBox="0 0 257.269 267.337">
  <g id="Group_100" data-name="Group 100" transform="translate(-106.063 -703.878)">
    <g id="Group_84" data-name="Group 84">
      <path id="Path_137" data-name="Path 137" d="M203.012,789.293a43.327,43.327,0,0,0-47.451-38.782A43.494,43.494,0,0,0,126.345,766.2a43.334,43.334,0,0,0,37.886,70.546,43.5,43.5,0,0,0,29.215-15.7A43.342,43.342,0,0,0,203.012,789.293Zm-26.344,18.039a21.738,21.738,0,0,1-14.608,7.844,21.658,21.658,0,0,1-18.936-35.267,21.748,21.748,0,0,1,14.608-7.843,21.658,21.658,0,0,1,18.936,35.266Z" fill="none" stroke="#d2dcff" stroke-miterlimit="10" stroke-width="1.401"/>
      <path id="Path_138" data-name="Path 138" d="M193.446,821.044a42.838,42.838,0,0,1-15.168,11.807l-9.4-19.524a21.385,21.385,0,0,0,7.788-6,21.663,21.663,0,0,0-18.936-35.266,21.373,21.373,0,0,0-7.633,2.241l-9.384-19.524a42.754,42.754,0,0,1,14.846-4.272,43.328,43.328,0,0,1,37.885,70.533Z" fill="none" stroke="#d2dcff" stroke-miterlimit="10" stroke-width="1.401"/>
    </g>
    <rect id="Rectangle_35" data-name="Rectangle 35" width="56.654" height="35.412" transform="translate(306.034 858.061)" fill="none" stroke="#d4ddff" stroke-miterlimit="10" stroke-width="1.091"/>
    <rect id="Rectangle_36" data-name="Rectangle 36" width="28.91" height="1.857" transform="translate(310.464 866.424)" fill="#d4ddff"/>
    <rect id="Rectangle_37" data-name="Rectangle 37" width="28.91" height="1.857" transform="translate(310.464 871.998)" fill="#d4ddff"/>
    <rect id="Rectangle_38" data-name="Rectangle 38" width="28.91" height="1.857" transform="translate(310.464 877.572)" fill="#d4ddff"/>
    <rect id="Rectangle_39" data-name="Rectangle 39" width="28.91" height="1.857" transform="translate(310.464 883.146)" fill="#d4ddff"/>
    <rect id="Rectangle_40" data-name="Rectangle 40" width="13.225" height="19.972" transform="translate(343.571 864.913)" fill="none" stroke="#d4ddff" stroke-miterlimit="10" stroke-width="1.341"/>
    <g id="Group_85" data-name="Group 85">
      <rect id="Rectangle_41" data-name="Rectangle 41" width="56.654" height="35.412" transform="translate(306.034 903.47)" fill="none" stroke="#d4ddff" stroke-miterlimit="10" stroke-width="1.091"/>
      <rect id="Rectangle_42" data-name="Rectangle 42" width="28.91" height="1.857" transform="translate(328.766 911.154)" fill="#d4ddff"/>
      <rect id="Rectangle_43" data-name="Rectangle 43" width="28.91" height="1.857" transform="translate(328.766 916.729)" fill="#d4ddff"/>
      <rect id="Rectangle_44" data-name="Rectangle 44" width="28.91" height="1.857" transform="translate(328.766 922.303)" fill="#d4ddff"/>
      <rect id="Rectangle_45" data-name="Rectangle 45" width="28.91" height="1.857" transform="translate(328.766 927.877)" fill="#d4ddff"/>
      <path id="Path_139" data-name="Path 139" d="M317.139,920.446l2.919-6.833a7.43,7.43,0,1,1-3.52-.573Z" fill="#d4ddff"/>
    </g>
    <g id="Group_86" data-name="Group 86">
      <rect id="Rectangle_46" data-name="Rectangle 46" width="56.654" height="35.412" transform="translate(306.131 813.459)" fill="none" stroke="#d4ddff" stroke-miterlimit="10" stroke-width="1.091"/>
      <rect id="Rectangle_47" data-name="Rectangle 47" width="39.851" height="1.857" transform="translate(315.185 826.89)" fill="#d4ddff"/>
      <rect id="Rectangle_48" data-name="Rectangle 48" width="28.91" height="1.857" transform="translate(320.655 832.51)" fill="#d4ddff"/>
    </g>
    <path id="Path_140" data-name="Path 140" d="M251.051,791.508v.005l.042.044c.1.109,1.231,4.163,1.273,4.315l-3.816,2.211c-.111-.111-3.067-3.106-3.111-3.25l-.017-.058,0,0-4.131.55,0,0v.061c-.006.149-2.073,3.814-2.151,3.951L234.87,798.2c0-.157.028-4.365.1-4.5l.029-.054v0l-3.31-2.532h-.005l-.044.042c-.11.1-4.163,1.231-4.315,1.273l-2.211-3.816c.111-.112,3.106-3.067,3.249-3.111l.058-.017,0-.005-.551-4.13,0,0-.061,0c-.15-.005-3.815-2.072-3.951-2.151l1.134-4.262c.158,0,4.366.028,4.5.1l.053.029h.005l2.531-3.31v-.005l-.042-.043c-.1-.11-1.231-4.163-1.273-4.315l3.816-2.212c.111.112,3.067,3.107,3.111,3.25l.017.058,0,0,4.131-.551,0,0v-.06c.006-.15,2.073-3.815,2.151-3.951l4.262,1.134c0,.158-.028,4.365-.1,4.5l-.029.053v.005l3.31,2.531h.005l.044-.042c.11-.1,4.163-1.232,4.315-1.273l2.211,3.816c-.111.111-3.106,3.067-3.249,3.111l-.058.017,0,0,.551,4.131,0,0h.061c.15.005,3.815,2.073,3.951,2.151l-1.134,4.262c-.158,0-4.366-.028-4.5-.1l-.053-.029h-.005Zm-1.814-14.325a8.869,8.869,0,1,0-3.226,12.121A8.869,8.869,0,0,0,249.237,777.183Z" fill="none" stroke="#94abff" stroke-miterlimit="10" stroke-width="1.401"/>
    <g id="Group_89" data-name="Group 89">
      <g id="Group_87" data-name="Group 87">
        <path id="Path_141" data-name="Path 141" d="M174.575,859.795c.093.154-13.875,19.261-31.442,9.353S174.575,859.795,174.575,859.795Z" fill="#52538c"/>
        <path id="Path_142" data-name="Path 142" d="M126.363,900.639c-.179,0-8.716-22.143,8.931-31.9S126.363,900.639,126.363,900.639Z" fill="#52538c"/>
        <path id="Path_143" data-name="Path 143" d="M155.41,842.583c.125.077-1.642,18.568-17.538,17.73S155.41,842.583,155.41,842.583Z" fill="#52538c"/>
        <path id="Path_144" data-name="Path 144" d="M119.086,833.873c.087-.119,18.123,3.361,15.836,19.3S119.086,833.873,119.086,833.873Z" fill="#52538c"/>
        <path id="Path_145" data-name="Path 145" d="M106.063,862.243c-.076-.127,9.954-15.687,23.659-7.495S106.063,862.243,106.063,862.243Z" fill="#52538c"/>
        <path id="Path_146" data-name="Path 146" d="M116.809,879.354c-.131-.067.263-18.64,16.177-19.008S116.809,879.354,116.809,879.354Z" fill="#52538c"/>
        <path id="Path_147" data-name="Path 147" d="M166.658,883c-.008.148-16.95,7.306-23.728-7.268S166.658,883,166.658,883Z" fill="#52538c"/>
        <path id="Path_148" data-name="Path 148" d="M132.743,857.312s8.047,6.871,9.3,14.435S144.5,910.8,144.5,910.8v18.843" fill="none" stroke="#52538c" stroke-miterlimit="10" stroke-width="1.037"/>
      </g>
      <g id="Group_88" data-name="Group 88">
        <path id="Path_149" data-name="Path 149" d="M155.41,930.641l-.336,3.754-2.465,27.549H136.39L133.925,934.4l-.336-3.754Z" fill="#4a5eb8"/>
        <path id="Path_150" data-name="Path 150" d="M155.41,930.641l-.336,3.754H133.925l-.336-3.754Z" fill="#3e4e99"/>
        <rect id="Rectangle_49" data-name="Rectangle 49" width="23.483" height="4.443" transform="translate(132.743 928.265)" fill="#4a5eb8"/>
      </g>
    </g>
    <ellipse id="Ellipse_35" data-name="Ellipse 35" cx="1.337" cy="1.478" rx="1.337" ry="1.478" transform="translate(165.953 960.467)" fill="#95ebff"/>
    <ellipse id="Ellipse_36" data-name="Ellipse 36" cx="1.337" cy="1.478" rx="1.337" ry="1.478" transform="translate(170.958 960.467)" fill="#95ebff"/>
    <ellipse id="Ellipse_37" data-name="Ellipse 37" cx="1.337" cy="1.478" rx="1.337" ry="1.478" transform="translate(177.863 960.467)" fill="#95ebff"/>
    <ellipse id="Ellipse_38" data-name="Ellipse 38" cx="1.337" cy="1.478" rx="1.337" ry="1.478" transform="translate(183.266 960.467)" fill="#95ebff"/>
    <path id="Path_151" data-name="Path 151" d="M158.611,869.806s-5.052,18.727-6.264,22.843c-.908,3.085-.137,8.455,7.548,8.455" fill="none" stroke="#a2aedb" stroke-linecap="round" stroke-linejoin="round" stroke-width="1.401"/>
    <path id="Path_152" data-name="Path 152" d="M159.546,845.29c.047.493.056,14.39-2.042,21.65a10.96,10.96,0,0,1-1.278,3.3s7.669,2.064,10.528-3.48c3.523-6.833,7.754-15.054,3.725-19.024C165.883,843.209,159.546,845.29,159.546,845.29Z" fill="#95ebff"/>
    <rect id="Rectangle_50" data-name="Rectangle 50" width="1.7" height="86.215" transform="translate(229.21 862.056) rotate(4.64)" fill="#20284d"/>
    <path id="Path_153" data-name="Path 153" d="M287.758,849.1c-.736,4.048-1.34,10.228-7.357,10.23-4.472,0-13.4,0-13.4,0" fill="none" stroke="#a2aedb" stroke-linecap="round" stroke-linejoin="round" stroke-width="1.401"/>
    <g id="Group_91" data-name="Group 91">
      <path id="Path_154" data-name="Path 154" d="M180.876,944.918,179.2,948.33l3.832,1.917,2.472-3.6Z" fill="#f8b58f"/>
      <path id="Path_155" data-name="Path 155" d="M165.04,952.386l-.454-4.276h4.309v4.276Z" fill="#f8b58f"/>
      <g id="Group_90" data-name="Group 90">
        <path id="Path_156" data-name="Path 156" d="M212.9,820.263c-.091.059,11.385,38.121,11.385,38.121a2.376,2.376,0,0,0,2.121,1.538c1.781.243,13.844,0,13.844,0s-2.851-4.21-7.7-3.967-5.414-.157-5.414-.157L222.65,814.11Z" fill="#f4a087"/>
        <path id="Path_157" data-name="Path 157" d="M221.985,794.555l-4.6,7.411s6.072,7.044,6.072,6.8,3.886-9.391,3.886-9.391Z" fill="#f4a086"/>
        <path id="Path_158" data-name="Path 158" d="M227.406,787.512s6.012,5.306,10.626,3.849,6.153-3.7,4.129-6.381-7.934-3.415-10.848-3.739-3.239-2.186-5.425-1.862a4.947,4.947,0,0,0-4.47,4.614c-.144,2.753,0,10.562,0,10.562l.018,1.42,2.064-2.995.137-2.581,1.28.152Z" fill="#242b58"/>
        <path id="Path_159" data-name="Path 159" d="M224.917,790.551s-2.267-1.943-2.834-.567,1.417,3,1.417,3-2.307,1.943-2.064,2.995,5.019,8.906,8.1,8.1,7.448-10.039,7.124-12.953-6.072-6.963-7.124-5.991S224.917,790.551,224.917,790.551Z" fill="#f8b690"/>
        <path id="Path_160" data-name="Path 160" d="M226.05,786.1c.081.243,7.759,7.566,11.982,5.263s3.481-5.263,3.481-5.263l-14.248-3.412Z" fill="#242b58"/>
        <path id="Path_161" data-name="Path 161" d="M185.005,819.372c.162-.324,13.115-15.949,21.049-16.92s11.334-.486,11.334-.486l6.072,6.8s2.98,12.653-6.072,26.959c-9.067,14.329-19.237,18.489-19.237,18.489l-17.275-32.5Z" fill="#cef0f2"/>
        <path id="Path_162" data-name="Path 162" d="M221.289,815.583l-12.159,8s12.68,10.767,24.677,15.625,37.418,11.658,40.009,9.472c1.133-.756,2.354-1.62,4.048-4.776,0,0,10.668-2,8.176-2.672-2.105-.162-15.463-2.834-16.515,2.591C241.19,836.859,233.807,827.043,221.289,815.583Z" fill="#f8b690"/>
      </g>
      <path id="Path_163" data-name="Path 163" d="M200.078,860.03c.433-.253,15.489,28.236,12.816,38.277-5.379,20.2-27.391,48.342-27.391,48.342l-4.627-1.731s11.7-44.014,12.42-48.2-6.494-5.772-9.669-3.9l-14.719,55.991H164s-1.588-35.788,0-46.467a73.229,73.229,0,0,0-.706-25.687c-1.3-6.782,5.612-12.987,5.612-12.987Z" fill="#222b54"/>
      <path id="Path_164" data-name="Path 164" d="M179.29,947.715s-3.453,2.3-3.376,3.377,3.376,3.069,3.376,3.069l1.074-.691,3.683,4.221h9.132s1.15-.768,0-1.3l-7.888-3.683-1.487-3.889C182.415,949.854,180.089,948.947,179.29,947.715Z" fill="#52538c"/>
      <path id="Path_165" data-name="Path 165" d="M164.772,950.785a3.251,3.251,0,0,0,4.309,1.074s3.9,1.995,5.359,2.532,6.523,1.611,6.983,1.918.3,1.382.3,1.382H171.218s-2.916-1.612-3.76-1.458-.532,1.458-.532,1.458h-3.943s-.322-4.275,0-4.988C163.333,951.927,163.775,951.015,164.772,950.785Z" fill="#52538c"/>
    </g>
    <path id="Path_166" data-name="Path 166" d="M188.437,904.421H163.389a4.792,4.792,0,0,1-4.778-4.778h0a4.792,4.792,0,0,1,4.778-4.778h25.048a4.792,4.792,0,0,1,4.778,4.778h0A4.792,4.792,0,0,1,188.437,904.421Z" fill="#95ebff"/>
    <g id="Group_92" data-name="Group 92">
      <path id="Path_167" data-name="Path 167" d="M198.151,957.714a15.779,15.779,0,0,1-5.723-3.217,9.192,9.192,0,0,1-1.421-1.249,7.67,7.67,0,0,1-1.356-2.665,2.4,2.4,0,0,1-.132-1.52.973.973,0,0,1,.878-.651c.361.039.591.466.819.73a23.892,23.892,0,0,1,1.63,2.169,48.266,48.266,0,0,0,3.1,4.389A11.24,11.24,0,0,0,198.151,957.714Z" fill="#f8b690"/>
      <path id="Path_168" data-name="Path 168" d="M196.582,828.45c.026.043.053.085.08.128,1.253,1.976,3.012,3.578,4.4,5.465,2.231,3.043,3.038,7.462.617,10.625-1.652,2.158-3.887,2.811-6.522,2.753a8.276,8.276,0,0,1-2.909-.445,6.788,6.788,0,0,1-2.74-2.264,5.418,5.418,0,0,1-1.373-4.031,9,9,0,0,1,1.579-3.109,9.773,9.773,0,0,0,1.17-2.591,12.66,12.66,0,0,0-.583-7.067,42.95,42.95,0,0,1-2.072-6.875c-.1-.705-.283-1.851.219-2.46.744-.9,3.178-1.307,3.874-.212a17.838,17.838,0,0,1,.954,2.612l1.39,3.414A26.871,26.871,0,0,0,196.582,828.45Z" fill="#232c54"/>
      <path id="Path_169" data-name="Path 169" d="M187.482,948.57a31.215,31.215,0,0,0,2.606,2.745l4.1-8.749-5.262-.679Z" fill="#f8b690"/>
      <path id="Path_170" data-name="Path 170" d="M193.429,945.026s28.687-41.122,27.682-46.654S207.389,880.422,196,876.248c0,0,2.706,28.461-1.651,43.953l-6.769,24.064Z" fill="#2e3961"/>
      <path id="Path_171" data-name="Path 171" d="M194.214,837.846a1.342,1.342,0,0,1,.523.5c.681,1.12,1.222,2.354,1.829,3.516q2.165,4.146,4.339,8.286.26.5.52.991s30.288-.727,31.319,0,5.288,4.986,5.288,4.986-1.364.559-2.06,0c-3.846-3.091-10.028-1.236-10.028-1.236q-7.178.852-14.356,1.711-4.932.588-9.863,1.182l-3.791.459c-.694.085-1.334.362-2,.47-1.1.178-1.673-.912-2.064-1.819a88.668,88.668,0,0,1-5.306-16.678.967.967,0,0,1-.009-.538.932.932,0,0,1,.413-.413C190.1,838.551,192.837,837.1,194.214,837.846Z" fill="#f49f86"/>
      <path id="Path_172" data-name="Path 172" d="M183.411,813.253c.074.175,0,7.912,0,7.912s1.05,3.572,3.591,3.228a6.266,6.266,0,0,0,3.709-1.648v-7.9Z" fill="#ee9c84"/>
      <path id="Path_173" data-name="Path 173" d="M190.264,801.869c.623.06,1.272.121,1.9.178a3.783,3.783,0,0,1,3.6,3.9l-.674,9.342a4.007,4.007,0,0,1-5.572,3.139,29.656,29.656,0,0,1-6.05-3.011c-.116-.32,0-10.367,0-10.367s1.4-1.5,1.976-.107c.2.486.407.2.585-.377A3.988,3.988,0,0,1,190.264,801.869Z" fill="#f8b690"/>
      <path id="Path_174" data-name="Path 174" d="M183.411,820.123c1.911,1.532,4.86,3.546,7.38,2.623a2.186,2.186,0,0,0,.242.646c1.808,2.787,4.106,5.366,4.99,8.568,1.081,3.914-.136,8.058-1.407,11.915-.532,1.614-1.516,3.064-2,4.649-.587,1.905.066,3.727.058,5.61a47.393,47.393,0,0,0,1.518,10.053c.431,2,.822,4.017,1.2,6.032.364,1.944,1.1,4.18,1.08,6.146a16.359,16.359,0,0,0-3.279-.156l-3.614-.051-9.62-.134-17.077-.237c-1-.014-1.279.008-1-1.017,1.289-4.657,3.919-8.762,5.48-13.348a42.164,42.164,0,0,0,2.32-11.6c.134-2.9-.1-5.8,0-8.7a33.5,33.5,0,0,1,1.079-7.472c.525-1.969,1.174-4.572,2.4-6.209a22.293,22.293,0,0,1,4.6-4.5,18.8,18.8,0,0,1,2.733-1.677C180.855,821.086,183.1,819.874,183.411,820.123Z" fill="#c7d3ff"/>
      <path id="Path_175" data-name="Path 175" d="M174.5,848.185c0-.1,15.041-4.149,15.041-4.149L196,857.36s29.736-4.876,31.385-4.6,5.219.961,5.837,1.717.962,5.7.962,5.7-.618-.824-1.374-2.06-1.236,1.236-3.228.549a31.462,31.462,0,0,1-4.121-1.854s-28.226,14.766-34.752,12.912S174.5,848.185,174.5,848.185Z" fill="#f7b690"/>
      <path id="Path_176" data-name="Path 176" d="M161.452,875.767s-2.219,10.481,8.769,16.085,34.173,13.076,37.469,13.625c0,0,15.828,35.662,18.841,42.2,2.481,5.383,2.583,6.345,2.583,6.345l6.266-.748s-9.01-44.172-11.867-50.984-20.3-23.078-27.511-26.043Z" fill="#485896"/>
      <path id="Path_177" data-name="Path 177" d="M187.526,947.717c-.181-.091-.348-.015-.684.133a6.9,6.9,0,0,0-2.152,1.356c-.639.641-.58,1.653-.8,2.494a15.277,15.277,0,0,1-1.22,3.157,5.658,5.658,0,0,0,2.039.888c.089-1.556,1.743-2.647,2.793-3.57a34.29,34.29,0,0,1,3.96,4.329,4.37,4.37,0,0,0,1.471,1.518,3.849,3.849,0,0,0,.83.255l4.093.926c.411.093,2.616-.179,1.68-.828-1.886-1.307-3.957-2.343-5.745-3.789a31.994,31.994,0,0,1-3.042-3.139q-1.024-1.094-1.972-2.255c-.326-.4-.624-.828-.959-1.218A1.031,1.031,0,0,0,187.526,947.717Z" fill="#222b55"/>
      <path id="Path_178" data-name="Path 178" d="M199.011,801.095a2.032,2.032,0,0,1-.04.264,3.058,3.058,0,0,1-3.2,3.016,19.867,19.867,0,0,1-5.888-.975c-1.16-.3-2.438.646-3.241,1.41-.343.329-.567.8-1.028,1-.5.211-.974-.079-1.4.435a1.645,1.645,0,0,0-.263,1.291,3.3,3.3,0,0,0,.566,1.212,2.52,2.52,0,0,1,.382.659,2.213,2.213,0,0,1-.039,1.172,13.249,13.249,0,0,0-.145,3.148,22.116,22.116,0,0,0,1.422,5.349c1.133,3.016,2.569,5.98,2.938,9.181a6.978,6.978,0,0,1-1.278,5.415c-1.409,1.58-3.7,1.976-5.809,2.226-1.686.2-3.623.514-4.492,1.976a5.693,5.693,0,0,0-.593,1.989,28.616,28.616,0,0,1-1.937,7.179,12.824,12.824,0,0,1-3.543,4.809c-.711.566-1.541.974-2.213,1.594A19.6,19.6,0,0,0,167.5,855.5a15.693,15.693,0,0,1-1.87,1.989,10.121,10.121,0,0,1-1.607,1.185,7.267,7.267,0,0,1-4.532,1.081,7.615,7.615,0,0,1-4.347-2.227,10.371,10.371,0,0,1-2.53-3.978,9.793,9.793,0,0,1-.355-5.362A15.556,15.556,0,0,1,154,844.027a20.831,20.831,0,0,1,2.977-4.321c2.173-2.3,5.256-3.531,7.245-6.047a13.737,13.737,0,0,0,2.029-3.807,28.578,28.578,0,0,0,.961-3.135c1.278-5.111,1.318-10.407,2.121-15.6a31.628,31.628,0,0,1,1.976-7.43c2.319-5.493,8.26-9.168,14-9.827a22.169,22.169,0,0,1,8.445.356,7.139,7.139,0,0,1,4.584,3.517c.1.224.2.448.29.672A5.867,5.867,0,0,1,199.011,801.095Z" fill="#232c54"/>
      <path id="Path_179" data-name="Path 179" d="M202.219,802.57h-.075" fill="#232c54"/>
      <path id="Path_180" data-name="Path 180" d="M199.011,801.095a2.032,2.032,0,0,1-.04.264,3.143,3.143,0,0,1-3.465.961,14.254,14.254,0,0,1-1.541-.948c-2.49-1.462-5.691-.409-8.167,1.054-3.083,1.818-5.941,4.531-6.574,8.049-.7,4.017,1.66,7.983,1.542,12.053-.119,4.005-2.609,7.548-5.375,10.446a66.875,66.875,0,0,0-5.217,5.533,18.853,18.853,0,0,0-3.859,10.644c-.106,2.793.382,5.823-.685,8.339a10.121,10.121,0,0,1-1.607,1.185,7.267,7.267,0,0,1-4.532,1.081,7.615,7.615,0,0,1-4.347-2.227,10.371,10.371,0,0,1-2.53-3.978,9.3,9.3,0,0,1-.237-3.188c.33-2.99,2.319-5.546,4.624-7.5s4.94-3.438,7.245-5.361a25.148,25.148,0,0,0,8.958-19.128c0-1.593-.157-3.188-.072-4.781a12.41,12.41,0,0,1,.994-3.893,19.747,19.747,0,0,1,4.824-7.577,20.084,20.084,0,0,1,1.388-1.471,18.648,18.648,0,0,1,2.169-1.662,25.593,25.593,0,0,1,3.313-2.007,18.166,18.166,0,0,1,4.548-1.621c3.006-.51,6.018-.528,7.81,2.319A5.191,5.191,0,0,1,199.011,801.095Z" fill="#354380"/>
      <path id="Path_181" data-name="Path 181" d="M185.933,801.374a8.649,8.649,0,0,1-1.171,7.736c-.75,1.033-1.722,1.883-2.566,2.842a5.194,5.194,0,0,0-.825,6.811c.566,1.065,1.265,2.061,1.735,3.171a8.551,8.551,0,0,1,.675,3.224,6.88,6.88,0,0,1-.939,3.674,4.956,4.956,0,0,1-2.988,2.259" fill="none" stroke="#354380" stroke-miterlimit="10" stroke-width="1.317"/>
    </g>
    <rect id="Rectangle_51" data-name="Rectangle 51" width="78.104" height="2.086" transform="translate(221.354 860.03)" fill="#20284d"/>
    <rect id="Rectangle_52" data-name="Rectangle 52" width="1.7" height="86.215" transform="translate(297.956 947.989) rotate(175.36)" fill="#20284d"/>
    <rect id="Rectangle_53" data-name="Rectangle 53" width="9.742" height="1.598" transform="translate(238.032 858.43)" fill="#c8ccdb"/>
    <rect id="Rectangle_54" data-name="Rectangle 54" width="1.399" height="39.62" transform="translate(291.64 806.36) rotate(8.614)" fill="#a2aedb"/>
    <rect id="Rectangle_55" data-name="Rectangle 55" width="3.067" height="46.425" transform="translate(292.983 803.863) rotate(8.617)" fill="#c8ccdb"/>
    <g id="Group_95" data-name="Group 95">
      <g id="Group_93" data-name="Group 93">
        <path id="Path_182" data-name="Path 182" d="M227.5,954.977s-16.708-12.62-12.792-25.612,9.92-9.451,9.92-9.451,1.3-25.568,10.182-19.437,16.186,19.049,15.4,19.97,5.482-8.536,5.482,5.39-12.27,29.14-12.27,29.14C239.245,956.385,227.5,954.977,227.5,954.977Z" fill="#94abff"/>
        <path id="Path_183" data-name="Path 183" d="M234.051,906.035c-.642.56,6.4,33,4.086,42.248" fill="none" stroke="#fff" stroke-linecap="round" stroke-linejoin="round" stroke-width="0.896"/>
        <path id="Path_184" data-name="Path 184" d="M222.314,926.585c-.3.2,7.307,11.417,16.293,14.408" fill="none" stroke="#fff" stroke-linecap="round" stroke-linejoin="round" stroke-width="0.896"/>
        <path id="Path_185" data-name="Path 185" d="M252.537,922.859s-5.507,8.3-13.93,12" fill="none" stroke="#fff" stroke-linecap="round" stroke-linejoin="round" stroke-width="0.896"/>
      </g>
      <g id="Group_94" data-name="Group 94">
        <path id="Path_186" data-name="Path 186" d="M246.292,957.218l-.805,1.947-4.17,10.1-10.965-.014-4.38-10.084-.837-1.947Z" fill="#5f65a3"/>
        <path id="Path_187" data-name="Path 187" d="M246.292,956.587v.63l-.805,1.947H225.972l-.837-1.947v-.63Z" fill="#52538c"/>
        <path id="Path_188" data-name="Path 188" d="M246.782,958.451l-23.058-1.237v-2.5l25.173.01Z" fill="#5f65a3"/>
      </g>
    </g>
    <g id="Group_96" data-name="Group 96">
      <rect id="Rectangle_56" data-name="Rectangle 56" width="4.848" height="36.048" transform="translate(337.852 767.145)" fill="#d4ddff"/>
      <rect id="Rectangle_57" data-name="Rectangle 57" width="4.848" height="31.646" transform="translate(345.817 771.547)" fill="#d4ddff"/>
      <rect id="Rectangle_58" data-name="Rectangle 58" width="4.848" height="38.48" transform="translate(354.128 764.588)" fill="#d4ddff"/>
      <rect id="Rectangle_59" data-name="Rectangle 59" width="4.848" height="30.483" transform="translate(328.89 772.71)" fill="#d4ddff"/>
      <rect id="Rectangle_60" data-name="Rectangle 60" width="4.848" height="33.372" transform="translate(319.928 769.821)" fill="#d4ddff"/>
      <rect id="Rectangle_61" data-name="Rectangle 61" width="4.848" height="31.646" transform="translate(310.966 771.547)" fill="#d4ddff"/>
      <path id="Path_189" data-name="Path 189" d="M306.685,803.193s11.785-13.942,11.866-13.135,7.18,4.958,7.18,4.958L340.8,774.993l5.887,14.1,12.293-21.948" fill="none" stroke="#18898d" stroke-linecap="round" stroke-linejoin="round" stroke-width="0.823"/>
      <path id="Path_190" data-name="Path 190" d="M306.685,767.145v36.048h56.1" fill="none" stroke="#d4ddff" stroke-linecap="round" stroke-linejoin="round" stroke-width="0.929"/>
    </g>
    <path id="Path_191" data-name="Path 191" d="M267.806,821.831v0l.051.034c.123.085,2.092,3.8,2.165,3.944l-3.255,2.975c-.133-.085-3.66-2.379-3.734-2.51l-.029-.053,0,0-3.918,1.421,0,0,.011.059c.027.148-1.21,4.17-1.257,4.32l-4.406-.2c-.034-.154-.9-4.271-.865-4.415l.017-.058,0-.005-3.774-1.765h0l-.034.05c-.085.124-3.8,2.093-3.943,2.166l-2.976-3.256c.085-.132,2.38-3.66,2.51-3.733l.053-.029,0,0-1.42-3.918,0,0-.06.012c-.147.027-4.169-1.21-4.319-1.257l.2-4.406c.154-.034,4.271-.906,4.415-.865l.058.017,0,0,1.766-3.775,0-.005-.05-.033c-.123-.086-2.092-3.8-2.165-3.944l3.255-2.975c.133.085,3.66,2.379,3.734,2.51l.029.053,0,0,3.918-1.421,0,0-.012-.059c-.026-.148,1.211-4.17,1.258-4.32l4.406.2c.033.154.9,4.27.865,4.415l-.017.058,0,0,3.774,1.766h.005l.034-.05c.085-.124,3.8-2.093,3.943-2.166l2.976,3.256c-.085.132-2.38,3.659-2.51,3.733l-.054.029v.005l1.42,3.917,0,0,.06-.012c.147-.027,4.169,1.21,4.319,1.257l-.2,4.406c-.153.034-4.27.905-4.415.865l-.058-.017,0,0Zm-4.832-13.607a8.869,8.869,0,1,0-.562,12.53A8.868,8.868,0,0,0,262.974,808.224Z" fill="none" stroke="#cef0f2" stroke-miterlimit="10" stroke-width="1.401"/>
    <g id="Group_99" data-name="Group 99">
      <g id="Group_97" data-name="Group 97">
        <path id="Path_192" data-name="Path 192" d="M276.109,945.866a12.418,12.418,0,0,1-4.561-1.811,88.469,88.469,0,0,1-1.487-11.8,74.676,74.676,0,0,1,7.351,1.471c-1.366-.356-4.39-2.229-7.474-3.783q-.111-2.551-.114-5.228a101.121,101.121,0,0,1,1.647-18.959,34.951,34.951,0,0,1,6.094,2.257c-1.326-.649-3.377-2.923-5.518-4.873,1.455-5.929,3.5-9.628,5.773-9.628,3.654,0,6.733,9.568,7.688,22.632-2.451,2.263-4.792,5.21-5.921,6.4.829-.872,3.439-1.582,6.143-2.394q.084,2.235.086,4.563a110.5,110.5,0,0,1-.862,14.084c-2.7,1.7-5.285,3.768-6.689,4.169,2.1-.6,4.208-1.15,6.327-1.671-1.414,8.781-3.918,14.621-6.772,14.621-2.373,0-4.5-4.036-5.967-10.44Z" fill="#222b54"/>
        <path id="Path_193" data-name="Path 193" d="M268.7,943.684a11.463,11.463,0,0,1-4.973-.936,125.137,125.137,0,0,1-5.117-13.172,64.7,64.7,0,0,1,7.565-.154c-1.432-.066-4.938-1.458-8.4-2.469q-.9-2.9-1.74-5.972a142.3,142.3,0,0,1-4.32-22.175,32,32,0,0,1,6.594,1.062c-1.484-.411-4.175-2.508-6.853-4.209-.442-7.171.384-11.93,2.578-12.5,3.532-.916,9.491,9.3,14.487,24.051-1.663,3.211-3.007,7.182-3.726,8.833.529-1.209,2.83-2.678,5.19-4.288q.779,2.544,1.506,5.216a155.953,155.953,0,0,1,3.559,16.382c-2.077,2.632-3.934,5.651-5.165,6.463,1.84-1.214,3.708-2.376,5.594-3.505,1.37,10.434.772,17.766-1.987,18.481-2.293.595-5.61-3.5-9.022-10.488Z" fill="#5f65a3"/>
        <path id="Path_194" data-name="Path 194" d="M279.6,946.3a12.685,12.685,0,0,1-2.873-3.837,74.943,74.943,0,0,1,4.832-9.774c1.853,1.616,3.665,3.281,5.375,5.082-.957-1.008-2.514-4.062-4.287-6.906q1.219-2,2.6-4.037A86.561,86.561,0,0,1,296.372,913.3a35.724,35.724,0,0,1,3.922,5c-.772-1.208-1.312-4.043-2.1-6.68,4.266-3.724,7.877-5.433,9.771-4.209,3.048,1.97.692,10.905-5.234,21.354-3.209.4-6.678,1.379-8.233,1.677,1.14-.217,3.682.65,6.356,1.49q-1.08,1.745-2.277,3.516a94.222,94.222,0,0,1-7.966,10.246c-3.128-.16-6.348.016-7.724-.436,2.057.675,4.1,1.394,6.137,2.14-5.7,5.914-10.792,9.006-13.173,7.468-1.979-1.279-1.679-5.5.4-11.156Z" fill="#94abff"/>
      </g>
      <g id="Group_98" data-name="Group 98">
        <path id="Path_195" data-name="Path 195" d="M296.295,950.053l-.817,3.991-3.483,17.171h-32l-3.483-17.171-.817-3.991Z" fill="#5f65a3"/>
        <path id="Path_196" data-name="Path 196" d="M296.295,948.4v1.653l-.817,3.991H256.509l-.817-3.991V948.4Z" fill="#52538c"/>
        <rect id="Rectangle_62" data-name="Rectangle 62" width="46.745" height="6.859" transform="translate(252.003 944.814)" fill="#5f65a3"/>
      </g>
    </g>
    <path id="Path_197" data-name="Path 197" d="M226.4,763.165v0l.041.033c.111.091,1.083,4.016,1.118,4.163l-3.879,3.642c-.144-.045-4-1.262-4.084-1.379l-.03-.042h0l-5.137,3.006,0,0,.023.048c.06.13-.767,4.088-.8,4.236l-5.074,1.6c-.111-.1-3.057-2.873-3.082-3.014l-.009-.052,0,0-5.933.48,0,0v.052c0,.144-2.465,3.351-2.557,3.47l-5.266-.762c-.055-.14-1.508-3.914-1.469-4.052l.014-.051v0L184.71,772.4h0l-.023.047c-.064.129-3.674,1.95-3.809,2.017L176.46,771.5c.011-.15.34-4.181.435-4.289l.035-.039v0l-4.075-4.339h0l-.041.032c-.113.088-4.157.163-4.307.164l-2.688-4.592c.075-.13,2.121-3.619,2.253-3.675l.048-.02,0,0-1.788-5.677,0,0-.051.011c-.14.03-3.815-1.657-3.952-1.721l-.429-5.3c.125-.085,3.481-2.341,3.624-2.334l.053,0,0,0,.852-5.891,0,0-.051-.012c-.14-.034-2.719-3.148-2.814-3.265l1.914-4.964c.149-.023,4.152-.6,4.278-.53l.046.025h0l3.324-4.938v0l-.041-.033c-.111-.091-1.083-4.016-1.118-4.163l3.879-3.642c.144.045,4,1.262,4.084,1.379l.03.043h0L185.1,710.7l0,0-.023-.047c-.06-.131.767-4.089.8-4.236l5.074-1.6c.111.1,3.057,2.873,3.082,3.014l.009.052,0,0,5.933-.479,0,0v-.053c0-.144,2.465-3.351,2.558-3.47l5.265.762c.055.14,1.508,3.914,1.469,4.053l-.014.05v0l5.554,2.141h0l.023-.047c.064-.129,3.674-1.95,3.81-2.017l4.413,2.971c-.011.15-.34,4.181-.435,4.289l-.035.039v0l4.075,4.339h0l.041-.032c.113-.088,4.157-.163,4.307-.164l2.688,4.592c-.075.13-2.12,3.619-2.253,3.675l-.048.02,0,0,1.788,5.677,0,0,.051-.011c.14-.03,3.815,1.657,3.952,1.721l.429,5.3c-.124.085-3.481,2.341-3.624,2.334l-.053,0,0,0-.852,5.891,0,0,.051.012c.14.034,2.719,3.148,2.814,3.265l-1.914,4.964c-.149.023-4.152.6-4.278.531l-.046-.026h0Zm-12.867-34.448a18.888,18.888,0,1,0-.841,26.7A18.889,18.889,0,0,0,213.532,728.717Z" fill="#cef0f2"/>
    <rect id="Rectangle_63" data-name="Rectangle 63" width="18.552" height="3.584" rx="1.18" transform="translate(166.74 956.191)" fill="#a2aedb"/>
    <line id="Line_5" data-name="Line 5" y2="53.397" transform="translate(175.913 903.47)" fill="none" stroke="#a2aedb" stroke-miterlimit="10" stroke-width="2.945"/>
  </g>
</svg>
