<svg xmlns="http://www.w3.org/2000/svg" width="1393.986" height="680.75" viewBox="0 0 1393.986 680.75">
  <g id="Group_111" data-name="Group 111" transform="translate(-4497.192 -859.673)">
    <path id="Path_198" data-name="Path 198" d="M4566.29,1536.885s-116.776-144.8-46.71-282.6,203.19-105.1,390.031-245.229c226.825-170.119,386.1-179.468,588.55-105.1,114.441,42.039,133.125,214.867,315.295,322.3,164.224,96.85,30.361,261.577-56.053,287.268s-144.8,25.691-144.8,25.691Z" fill="#e7f3fe"/>
    <path id="Path_199" data-name="Path 199" d="M5261.532,1225.571c-29.146,59.166-65.69,220.842-75.656,229.7s-67.549,43.187-77.516,59.8-5.536,11.075-1.106,12.182,254.694,2.214,254.694,2.214-28.791-171.642-32.113-172.749S5261.532,1225.571,5261.532,1225.571Z" fill="#a2dff2"/>
    <path id="Path_200" data-name="Path 200" d="M5220.09,1528.664c45.964.32,94.467.573,121.168.7L5304.7,1310.742c-19.5-37.8-43.169-85.171-43.169-85.171-3.674,7.459-7.466,16.549-11.309,26.754-3.79,164.206,19.86,210.231,2.095,239.49C5238.457,1514.647,5225.8,1524.86,5220.09,1528.664Z" fill="#96cfe0"/>
    <path id="Path_201" data-name="Path 201" d="M5739.722,1540.423H4537.974a9.27,9.27,0,0,1,0-18.54H5739.722a9.27,9.27,0,1,1,0,18.54Z" fill="#2e5b9a"/>
    <path id="Path_202" data-name="Path 202" d="M5415.011,1154.161c41.568,38.369,134.092,74.755,134.092,74.755s14.058,129.883,4.466,203.425-4.264,88.464-4.264,88.464H5358.523s-25.6-35.532-72.476-146.018c-29.843-70.345-24.515-149.216-24.515-149.216l116.176-52.226Z" fill="#a2dff2"/>
    <path id="Path_203" data-name="Path 203" d="M5358.523,1520.805h190.782s-5.328-14.921,4.264-88.464c7.9-60.556-.238-159.311-3.357-192.3l-17.351-7.437c-43.559,12.551-68.66,77.52-76.043,141.013-4.939,42.483-75.322,84.3-121.361,107.328C5350.583,1509.781,5358.523,1520.805,5358.523,1520.805Z" fill="#96cfe0"/>
    <path id="Path_204" data-name="Path 204" d="M5311.751,1020.846c-23,51.221,4.6,98.67,3.768,96.669s34.809-86.48,34.809-86.48Z" fill="#2e5b9a"/>
    <path id="Path_205" data-name="Path 205" d="M5398.9,1058.722l29.167,106.608a9.653,9.653,0,0,1-1.845,8.635c-6.841,8.427-16.583,25.762-36.232,31.322a48.693,48.693,0,0,1-12.337,1.384,8.323,8.323,0,0,1-8.218-6.738l-19.542-101.114Z" fill="#f09959"/>
    <path id="Path_206" data-name="Path 206" d="M5393.33,1067.632l-10.661,4.37-32.777,26.817,17.594,89.646C5397.322,1169.863,5401.672,1157.309,5393.33,1067.632Z" fill="#e38540"/>
    <path id="Path_207" data-name="Path 207" d="M5397.828,1105.88c-6.456,35.07-32.7,58.789-58.615,52.977s-38.28-28.511-35.236-74.022c2.387-35.706,19.993-74.516,45.91-68.7S5404.283,1070.81,5397.828,1105.88Z" fill="#f09959"/>
    <path id="Path_208" data-name="Path 208" d="M5549.1,1228.916c38.6,8.716,45.774,87.118,58.324,169.8,1.445,9.517,8.86,90.071,8.86,90.071a24.656,24.656,0,0,1-14.028,22.148c-12.615,6.309-17.718,11.075-90.808,11.813-70.2.709-160.7-2.215-160.7-2.215s-.8-26.119,6.4-38.883c10.828-19.2,121.817-46.757,132.153-48.234,1.477-20.672-10.192-95.467,5.907-146.18,11.074-34.884,22.979-53.157,37.894-57.933A29.943,29.943,0,0,1,5549.1,1228.916Z" fill="#a2dff2"/>
    <path id="Path_209" data-name="Path 209" d="M5390.442,1522.129c34.6.52,82.1,1.017,121.009.624,73.09-.738,78.193-5.5,90.808-11.813,14.766-7.382,15.5-19.933,15.5-19.933s-7.462-85.715-8.858-95.239c-8.122-55.371-16.9-118.732-37.318-149.317,19.2,56.267,22.287,103.743,22.63,124.021.174,10.269-.773,24.332-3.77,34.156-3.321,10.889-11.813,17.719-25.1,14.027-26.578-7.382-59.8,8.121-59.8,8.121s25.1-8.859,48.726-.738,72.352,62.016,19.195,81.949C5557.2,1514.087,5459.77,1519.062,5390.442,1522.129Z" fill="#96cfe0"/>
    <path id="Path_210" data-name="Path 210" d="M5363.055,1484.116s9.844-16.734,30.025-16.734,18.7,32.976,15.75,43.805-14.767,11.32-14.767,11.32l-43.312-1.969Z" fill="#96cfe0"/>
    <path id="Rectangle_64" data-name="Rectangle 64" d="M7.486,0H280.531a7.487,7.487,0,0,1,7.487,7.487V9.638a7.487,7.487,0,0,1-7.487,7.487H7.486A7.486,7.486,0,0,1,0,9.639V7.486A7.486,7.486,0,0,1,7.486,0Z" transform="translate(5038.615 1512.897)" fill="#75a1de"/>
    <path id="Path_211" data-name="Path 211" d="M5357.641,1486.085c-42.328-15.258-53.432-9.514-63-12.3-23.625-6.89-29.531-.984-44.789,40.852-3.039,8.336,5.906,8.859,14.766,8.859s19.687-17.226,23.133-19.195,12.8-2.953,12.8-2.953-2.953,0-7.382,8.859-9.844,12.3-2.953,12.3,7.875-11.32,20.671-8.859,7.875,8.859,39.868,8.367,56.136,0,55.618-19.2c-.493-18.211,1.523-27.317-15.75-30.515C5377.329,1469.843,5357.641,1486.085,5357.641,1486.085Z" fill="#f09959"/>
    <path id="Path_212" data-name="Path 212" d="M5358.2,1486.085c28.3-3.2,20,32.054,17.042,35.007s15.757,1.037,15.757,1.037,8.791-14.142,1.408-30.384-22.148-16.98-22.148-16.98l-12.551,6.89Z" fill="#a86b48"/>
    <path id="Path_213" data-name="Path 213" d="M5387.745,1483.017c-.365,4.368-7.789,7.314-16.583,6.58s-15.626-4.872-15.26-9.241,7.789-7.316,16.582-6.581S5388.11,1478.648,5387.745,1483.017Z" fill="#2e5b9a"/>
    <path id="Path_214" data-name="Path 214" d="M5385.494,1480.844c-.325,3.9-6.958,6.536-14.816,5.88s-13.96-4.354-13.634-8.257,6.96-6.536,14.816-5.879S5385.821,1476.94,5385.494,1480.844Z" fill="#3e6bab"/>
    <path id="Path_215" data-name="Path 215" d="M5380.587,1479.035c-.235,2.81-5.01,4.7-10.665,4.232s-10.05-3.134-9.816-5.944,5.01-4.7,10.666-4.232S5380.821,1476.225,5380.587,1479.035Z" fill="#f0ceb4"/>
    <g id="Group_101" data-name="Group 101">
      <path id="Path_216" data-name="Path 216" d="M5036.117,1475.937H4761.059a30.1,30.1,0,0,1-29.488-24.905L4695.7,1253.013c-3.383-18.675,10.761-35.888,29.488-35.888h275.057a30.1,30.1,0,0,1,29.488,24.905l35.874,198.019C5068.988,1458.724,5054.844,1475.937,5036.117,1475.937Z" fill="#75a1de"/>
      <path id="Path_217" data-name="Path 217" d="M5048.967,1440.792l-36.611-193.922c-2.668-14.13-15.329-24.39-30.1-24.39H4702.734a30.889,30.889,0,0,0-7.019,25.856l37.135,202.173a31.034,31.034,0,0,0,30.524,25.428h255.5C5037.985,1475.937,5052.421,1459.08,5048.967,1440.792Z" fill="#a8ceff"/>
      <path id="Path_218" data-name="Path 218" d="M4982.643,1502.454h-52.216c-9.312,0-16.861-8.293-16.861-18.524v-95.469c0-16.283-12.016-29.482-26.838-29.482h-27.276c-14.822,0-26.837,13.2-26.837,29.482v106.915c0,18.283,13.546,33.072,30.188,32.958l142.506-.979C5005.309,1513.6,4995.161,1502.454,4982.643,1502.454Z" fill="#75a1de"/>
      <path id="Path_219" data-name="Path 219" d="M4834.691,1390.6v105.276a32.449,32.449,0,0,0,30.092,32.358l139.077-.869c-.015-2.278-10.978-6.43-24.52-6.43h-56.484a18.239,18.239,0,0,1-18.24-18.24V1390.6a29.032,29.032,0,0,0-29.031-29.032h-11.863A29.031,29.031,0,0,0,4834.691,1390.6Z" fill="#a8ceff"/>
    </g>
    <path id="Path_220" data-name="Path 220" d="M5125.8,1490.323c21.019-11.677,46.707-7.785,56.047,3.892s10.9,19.46-10.119,19.46-63.053,1.557-70.058.779S5125.8,1490.323,5125.8,1490.323Z" fill="#f09959"/>
    <path id="Path_221" data-name="Path 221" d="M5156.936,1483.317c22.574-5.449,38,7.687,56.825,20.239,16.347,10.9,19.633,21.492,1.557,12.455-26.466-13.234-42.035-14.79-42.035-14.79Z" fill="#f09959"/>
    <path id="Path_222" data-name="Path 222" d="M5136.374,1490.252c-11.4,0-21.352-3.636-29.4-2.966s-33.53,26.825-29.507,28.837a9.228,9.228,0,0,0,.94.4,13.729,13.729,0,0,0,16.289-5.713c3.6-5.787,9.473-12.522,16.3-10.112a72.491,72.491,0,0,0,23.364,3.637Z" fill="#f09959"/>
    <path id="Path_223" data-name="Path 223" d="M5129.691,1518.346c-11.677-4.671,7.006-43.592,13.233-43.592s29.581,18.683,29.581,18.683-5.494,3.1-24.131-3.114c-4.671-1.557-8.563,24.909-14.012,28.023S5129.691,1518.346,5129.691,1518.346Z" fill="#f7a96f"/>
    <path id="Path_224" data-name="Path 224" d="M5303.959,1105.331c-1.085,42.859,13.516,50.108,23.732,55.927s54.216-3.794,60.675-14.394c16.523-27.119,2.615-52.407,6.31-52.025s7.076,10.94,16.714,24.642c.9,1.275,7.158,9.743,7.487,6.927,4.473-38.38,24.458-50.3,19.7-89.116-3.508-28.617-21.674-26.346-21.674-26.346s-11.718-23.945-48.2-21.226c-24.441,1.822-46.23,11.343-71.423,17.828s29.806,63.591,62.486,42.727,16.543,25.093,21.7,28.657,2.481.473,4.845,23.99-27.5,38.87-36.059,40.883c-27.368,6.437-31.945,1.923-37.938-8.384C5307.115,1126.479,5303.959,1105.331,5303.959,1105.331Z" fill="#2e5b9a"/>
    <path id="Path_225" data-name="Path 225" d="M5417.243,1092.06c-3.14,10.8-10.813,17.78-17.137,15.587s-6.515-10.972-5.769-23.531c.672-11.322,10.812-17.78,17.136-15.586S5420.381,1081.258,5417.243,1092.06Z" fill="#f09959"/>
    <g id="Group_106" data-name="Group 106">
      <g id="Group_103" data-name="Group 103">
        <path id="Rectangle_65" data-name="Rectangle 65" d="M4.6,0H238.253a4.6,4.6,0,0,1,4.6,4.6V105.148a4.6,4.6,0,0,1-4.6,4.6H4.6a4.6,4.6,0,0,1-4.6-4.6V4.6A4.6,4.6,0,0,1,4.6,0Z" transform="translate(4580.938 953.308)" fill="#b7e1ff"/>
        <path id="Rectangle_66" data-name="Rectangle 66" d="M3.719,0H225.857a3.719,3.719,0,0,1,3.719,3.719V72.048a3.719,3.719,0,0,1-3.719,3.719H3.72A3.72,3.72,0,0,1,0,72.047V3.719A3.719,3.719,0,0,1,3.719,0Z" transform="translate(4587.579 982.143)" fill="#fff"/>
        <g id="Group_102" data-name="Group 102">
          <rect id="Rectangle_67" data-name="Rectangle 67" width="9.515" height="8.563" rx="2.062" transform="translate(4590.95 961.385)" fill="#fff"/>
          <path id="Rectangle_68" data-name="Rectangle 68" d="M2.062,0H7.453a2.06,2.06,0,0,1,2.06,2.06V6.5A2.062,2.062,0,0,1,7.452,8.563H2.062A2.062,2.062,0,0,1,0,6.5V2.062A2.062,2.062,0,0,1,2.062,0Z" transform="translate(4608.249 961.385)" fill="#fff"/>
          <path id="Rectangle_69" data-name="Rectangle 69" d="M2.062,0H7.453A2.061,2.061,0,0,1,9.514,2.061V6.5A2.062,2.062,0,0,1,7.452,8.563H2.062A2.062,2.062,0,0,1,0,6.5V2.062A2.062,2.062,0,0,1,2.062,0Z" transform="translate(4625.547 961.385)" fill="#fff"/>
        </g>
        <path id="Path_226" data-name="Path 226" d="M4807.814,998.749H4686.38a3.633,3.633,0,1,1,0-7.265h121.434a3.633,3.633,0,1,1,0,7.265Z" fill="#b7e1ff"/>
        <path id="Path_227" data-name="Path 227" d="M4716.478,1054.8H4595.044a3.633,3.633,0,1,1,0-7.265h121.434a3.633,3.633,0,1,1,0,7.265Z" fill="#b7e1ff"/>
        <rect id="Rectangle_70" data-name="Rectangle 70" width="15.049" height="7.265" rx="1.242" transform="translate(4725.042 1047.531)" fill="#b7e1ff"/>
        <rect id="Rectangle_71" data-name="Rectangle 71" width="15.05" height="7.265" rx="1.242" transform="translate(4743.983 1047.531)" fill="#b7e1ff"/>
        <path id="Path_228" data-name="Path 228" d="M4808.981,1014.577H4607.887a2.465,2.465,0,1,1,0-4.929h201.094a2.465,2.465,0,1,1,0,4.929Z" fill="#b7e1ff"/>
        <path id="Path_229" data-name="Path 229" d="M4808.981,1025.216H4607.887a2.465,2.465,0,1,1,0-4.93h201.094a2.465,2.465,0,1,1,0,4.93Z" fill="#b7e1ff"/>
      </g>
      <g id="Group_105" data-name="Group 105">
        <path id="Rectangle_72" data-name="Rectangle 72" d="M4.605,0H238.254a4.6,4.6,0,0,1,4.6,4.6V105.148a4.605,4.605,0,0,1-4.605,4.605H4.605A4.605,4.605,0,0,1,0,105.148V4.605A4.605,4.605,0,0,1,4.605,0Z" transform="translate(4635.814 1030.368)" fill="#9ec8ff"/>
        <path id="Rectangle_73" data-name="Rectangle 73" d="M3.72,0H225.857a3.72,3.72,0,0,1,3.72,3.72V72.047a3.719,3.719,0,0,1-3.719,3.719H3.72A3.72,3.72,0,0,1,0,72.047V3.72A3.72,3.72,0,0,1,3.72,0Z" transform="translate(4642.455 1059.204)" fill="#fff"/>
        <g id="Group_104" data-name="Group 104">
          <path id="Rectangle_74" data-name="Rectangle 74" d="M2.062,0H7.453A2.061,2.061,0,0,1,9.514,2.061V6.5A2.062,2.062,0,0,1,7.452,8.563H2.062A2.062,2.062,0,0,1,0,6.5V2.062A2.062,2.062,0,0,1,2.062,0Z" transform="translate(4645.827 1038.445)" fill="#fff"/>
          <rect id="Rectangle_75" data-name="Rectangle 75" width="9.515" height="8.563" rx="2.062" transform="translate(4663.125 1038.445)" fill="#fff"/>
          <path id="Rectangle_76" data-name="Rectangle 76" d="M2.062,0H7.453A2.063,2.063,0,0,1,9.516,2.063V6.5A2.062,2.062,0,0,1,7.454,8.563H2.063A2.063,2.063,0,0,1,0,6.5V2.062A2.062,2.062,0,0,1,2.062,0Z" transform="translate(4680.422 1038.445)" fill="#fff"/>
        </g>
        <path id="Path_230" data-name="Path 230" d="M4862.691,1075.81H4741.255a3.633,3.633,0,0,1,0-7.266h121.436a3.633,3.633,0,0,1,0,7.266Z" fill="#9ec8ff"/>
        <path id="Path_231" data-name="Path 231" d="M4771.355,1131.857H4649.921a3.633,3.633,0,0,1,0-7.266h121.434a3.633,3.633,0,0,1,0,7.266Z" fill="#9ec8ff"/>
        <rect id="Rectangle_77" data-name="Rectangle 77" width="15.05" height="7.265" rx="1.242" transform="translate(4779.917 1124.591)" fill="#9ec8ff"/>
        <rect id="Rectangle_78" data-name="Rectangle 78" width="15.049" height="7.265" rx="1.242" transform="translate(4798.86 1124.591)" fill="#9ec8ff"/>
        <path id="Path_232" data-name="Path 232" d="M4863.858,1091.638H4662.764a2.465,2.465,0,1,1,0-4.93h201.094a2.465,2.465,0,1,1,0,4.93Z" fill="#9ec8ff"/>
        <path id="Path_233" data-name="Path 233" d="M4863.858,1102.276H4662.764a2.464,2.464,0,1,1,0-4.929h201.094a2.464,2.464,0,1,1,0,4.929Z" fill="#9ec8ff"/>
      </g>
    </g>
    <g id="Group_108" data-name="Group 108">
      <path id="Path_234" data-name="Path 234" d="M4965.073,1113.267a31.525,31.525,0,1,1-31.525-31.525A31.525,31.525,0,0,1,4965.073,1113.267Z" fill="#9cd499"/>
      <g id="Group_107" data-name="Group 107">
        <path id="Path_235" data-name="Path 235" d="M4930.42,1124.916l-.089,0a2.4,2.4,0,0,1-1.713-.813l-8.563-9.73a2.4,2.4,0,1,1,3.6-3.171l6.89,7.83,16.485-16.133a2.4,2.4,0,0,1,3.357,3.43l-18.293,17.9A2.4,2.4,0,0,1,4930.42,1124.916Z" fill="#fff"/>
      </g>
    </g>
    <g id="Group_110" data-name="Group 110">
      <path id="Rectangle_79" data-name="Rectangle 79" d="M9.341,0H209.785a9.342,9.342,0,0,1,9.342,9.342V80.957a9.341,9.341,0,0,1-9.341,9.341H9.341A9.341,9.341,0,0,1,0,80.957V9.341A9.341,9.341,0,0,1,9.341,0Z" transform="translate(4957.272 876.531)" fill="#9ec8ff"/>
      <path id="Path_236" data-name="Path 236" d="M4983.739,953.206v49.82l57.409-57.409S4984.907,953.206,4983.739,953.206Z" fill="#9ec8ff"/>
      <path id="Rectangle_80" data-name="Rectangle 80" d="M7.921,0H188.54a7.92,7.92,0,0,1,7.92,7.92V64.474a7.919,7.919,0,0,1-7.919,7.919H7.921A7.921,7.921,0,0,1,0,64.473V7.921A7.921,7.921,0,0,1,7.921,0Z" transform="translate(4968.606 885.483)" fill="#fff"/>
      <path id="Path_237" data-name="Path 237" d="M5075.593,903.387h-88.741a3.892,3.892,0,0,1,0-7.784h88.741a3.892,3.892,0,1,1,0,7.784Z" fill="#9ec8ff"/>
      <rect id="Rectangle_81" data-name="Rectangle 81" width="168.919" height="4.373" rx="2.164" transform="translate(4982.96 913.896)" fill="#9ec8ff"/>
      <rect id="Rectangle_82" data-name="Rectangle 82" width="168.919" height="4.373" rx="2.164" transform="translate(4982.96 922.367)" fill="#9ec8ff"/>
      <g id="Group_109" data-name="Group 109">
        <path id="Rectangle_83" data-name="Rectangle 83" d="M2.062,0H7.453A2.062,2.062,0,0,1,9.515,2.062V6.5A2.062,2.062,0,0,1,7.453,8.563H2.063A2.063,2.063,0,0,1,0,6.5V2.062A2.062,2.062,0,0,1,2.062,0Z" transform="translate(5108.244 946.2)" fill="#9ec8ff"/>
        <path id="Rectangle_84" data-name="Rectangle 84" d="M2.062,0H7.453A2.061,2.061,0,0,1,9.514,2.061V6.5A2.062,2.062,0,0,1,7.452,8.563H2.062A2.062,2.062,0,0,1,0,6.5V2.062A2.062,2.062,0,0,1,2.062,0Z" transform="translate(5125.542 946.2)" fill="#9ec8ff"/>
        <rect id="Rectangle_85" data-name="Rectangle 85" width="9.515" height="8.563" rx="2.062" transform="translate(5142.84 946.2)" fill="#9ec8ff"/>
      </g>
    </g>
  </g>
</svg>
