<svg xmlns="http://www.w3.org/2000/svg" width="500" height="372.609" viewBox="0 0 500 372.609">
  <g id="Group_157" data-name="Group 157" transform="translate(0 -54.953)">
    <g id="Background_Complete" data-name="Background Complete">
      <g id="Group_114" data-name="Group 114">
        <g id="Group_112" data-name="Group 112">
          <rect id="Rectangle_86" data-name="Rectangle 86" width="500" height="0.25" transform="translate(0 382.398)" fill="#ebebeb"/>
          <path id="Path_238" data-name="Path 238" d="M237.014,337.8H43.915a5.715,5.715,0,0,1-5.708-5.708V60.66a5.714,5.714,0,0,1,5.708-5.707h193.1a5.714,5.714,0,0,1,5.707,5.707V332.092A5.715,5.715,0,0,1,237.014,337.8ZM43.915,55.2a5.463,5.463,0,0,0-5.458,5.457V332.092a5.464,5.464,0,0,0,5.458,5.458h193.1a5.463,5.463,0,0,0,5.457-5.458V60.66a5.463,5.463,0,0,0-5.457-5.457Z" fill="#ebebeb"/>
          <path id="Path_239" data-name="Path 239" d="M453.31,337.8h-193.1a5.714,5.714,0,0,1-5.707-5.708V60.66a5.713,5.713,0,0,1,5.707-5.707h193.1a5.714,5.714,0,0,1,5.709,5.707V332.092A5.715,5.715,0,0,1,453.31,337.8ZM260.212,55.2a5.463,5.463,0,0,0-5.457,5.457V332.092a5.463,5.463,0,0,0,5.457,5.458h193.1a5.464,5.464,0,0,0,5.459-5.458V60.66A5.464,5.464,0,0,0,453.31,55.2Z" fill="#ebebeb"/>
        </g>
        <g id="Group_113" data-name="Group 113">
          <rect id="Rectangle_87" data-name="Rectangle 87" width="25.997" height="0.25" transform="translate(174.438 391.922)" fill="#ebebeb"/>
          <rect id="Rectangle_88" data-name="Rectangle 88" width="54.101" height="0.25" transform="translate(52.459 389.208)" fill="#ebebeb"/>
          <rect id="Rectangle_89" data-name="Rectangle 89" width="26.317" height="0.25" transform="translate(147.119 401.208)" fill="#ebebeb"/>
          <rect id="Rectangle_90" data-name="Rectangle 90" width="38.832" height="0.25" transform="translate(258.227 399.528)" fill="#ebebeb"/>
          <rect id="Rectangle_91" data-name="Rectangle 91" width="10.694" height="0.25" transform="translate(305.962 399.528)" fill="#ebebeb"/>
          <rect id="Rectangle_92" data-name="Rectangle 92" width="54.556" height="0.25" transform="translate(395.346 395.306)" fill="#ebebeb"/>
        </g>
      </g>
      <g id="Group_122" data-name="Group 122">
        <g id="Group_116" data-name="Group 116">
          <g id="Group_115" data-name="Group 115">
            <rect id="Rectangle_93" data-name="Rectangle 93" width="45.652" height="125.473" transform="translate(426.711 373.525) rotate(180)" fill="#f0f0f0"/>
            <rect id="Rectangle_94" data-name="Rectangle 94" width="236.207" height="8.873" transform="translate(417.946 382.398) rotate(180)" fill="#f0f0f0"/>
            <rect id="Rectangle_95" data-name="Rectangle 95" width="208.086" height="125.473" transform="translate(172.973 248.052)" fill="#f5f5f5"/>
            <rect id="Rectangle_96" data-name="Rectangle 96" width="208.886" height="45.925" transform="translate(172.973 256.546)" fill="#f0f0f0"/>
            <rect id="Rectangle_97" data-name="Rectangle 97" width="208.886" height="45.925" transform="translate(172.973 310.848)" fill="#f0f0f0"/>
            <rect id="Rectangle_98" data-name="Rectangle 98" width="7.898" height="45.925" transform="translate(388.957 302.471) rotate(180)" fill="#e6e6e6"/>
            <rect id="Rectangle_99" data-name="Rectangle 99" width="7.898" height="45.925" transform="translate(388.957 356.773) rotate(180)" fill="#e6e6e6"/>
          </g>
          <rect id="Rectangle_100" data-name="Rectangle 100" width="214.169" height="7.72" transform="translate(381.06 248.052) rotate(180)" fill="#f0f0f0"/>
          <rect id="Rectangle_101" data-name="Rectangle 101" width="52.032" height="7.72" transform="translate(381.06 240.332)" fill="#e6e6e6"/>
        </g>
        <g id="Group_118" data-name="Group 118">
          <rect id="Rectangle_102" data-name="Rectangle 102" width="107.432" height="135.044" transform="translate(435.575 216.728) rotate(180)" fill="#f0f0f0"/>
          <rect id="Rectangle_103" data-name="Rectangle 103" width="127.032" height="135.044" transform="translate(431.459 216.728) rotate(180)" fill="#f5f5f5"/>
          <rect id="Rectangle_104" data-name="Rectangle 104" width="113.76" height="105.748" transform="translate(315.069 206.086) rotate(-90)" fill="#fff"/>
          <g id="Group_117" data-name="Group 117">
            <path id="Path_240" data-name="Path 240" d="M379.652,161.521l20.21-9.369v-5.9l-20.21-9.385v7.055l12.282,5.29-12.282,5.293Z" fill="#e6e6e6"/>
            <path id="Path_241" data-name="Path 241" d="M366.475,134.15h-3.694l6.544,30.112h3.658Z" fill="#e6e6e6"/>
            <path id="Path_242" data-name="Path 242" d="M356.234,154.509l-12.282-5.293,12.282-5.29v-7.055l-20.21,9.385v5.9l20.21,9.369Z" fill="#e6e6e6"/>
          </g>
        </g>
        <g id="Group_119" data-name="Group 119">
          <rect id="Rectangle_105" data-name="Rectangle 105" width="7.043" height="229.176" transform="translate(124.256 382.398) rotate(180)" fill="#f0f0f0"/>
          <path id="Path_243" data-name="Path 243" d="M115.754,380.8l-.191-.983a5.568,5.568,0,0,0,3.326-2.91c1.831-3.242,2.944-10.147-2.147-24.632-7.844-22.313-3.162-40.321,6.165-76.2,1.624-6.249,3.466-13.332,5.377-20.978,7.167-28.668.537-46.45-4.79-60.738-4.136-11.091-7.4-19.851-3.221-30l.924.381c-4.03,9.785-.825,18.383,3.235,29.27,5.375,14.417,12.064,32.359,4.823,61.328-1.913,7.651-3.755,14.736-5.38,20.987-9.276,35.68-13.932,53.589-6.19,75.614,5.236,14.895,4,22.092,2.045,25.507A6.507,6.507,0,0,1,115.754,380.8Z" fill="#f0f0f0"/>
          <path id="Path_244" data-name="Path 244" d="M107.992,382.4h25.487l-7.087-4.176H115.078Z" fill="#f0f0f0"/>
          <path id="Path_245" data-name="Path 245" d="M70.315,182.407h100.84l-11.1-84.741H81.412Z" fill="#f5f5f5"/>
        </g>
        <g id="Group_121" data-name="Group 121">
          <path id="Path_246" data-name="Path 246" d="M219.879,196.376h53.84l-7.087,43.956H226.966Z" fill="#f0f0f0"/>
          <g id="Group_120" data-name="Group 120">
            <path id="Path_247" data-name="Path 247" d="M241.508,210.679c14.68-5.314,25.926-13.293,13.346-29.435s-32.075-16.075-45.21-8.929c-16.743,9.109-13.386,35.452-13.386,35.452S226.829,215.992,241.508,210.679Z" fill="#e0e0e0"/>
            <path id="Path_248" data-name="Path 248" d="M255.783,195.969c-11.233-7.644-19.2-16.5-6.163-25.84s29.1-4.551,38.758,4.125c12.31,11.06,5.206,30.47,5.206,30.47S267.016,203.614,255.783,195.969Z" fill="#e6e6e6"/>
            <path id="Path_249" data-name="Path 249" d="M236.012,176.593c13.14-.8,24.159-4.224,17.937-18.457s-21.97-18.211-34.309-15.775c-15.73,3.106-19.436,22.786-19.436,22.786S222.872,177.389,236.012,176.593Z" fill="#f0f0f0"/>
            <path id="Path_250" data-name="Path 250" d="M252.5,168.2c-10.93-3.514-19.5-8.792-11.166-19.472s22.5-10.639,32.4-5.913c12.619,6.024,11.5,23.454,11.5,23.454S263.428,171.71,252.5,168.2Z" fill="#ebebeb"/>
            <path id="Path_251" data-name="Path 251" d="M232.012,149.964c10.9,3.6,20.938,4.375,20.491-9.165S240.58,118.952,229.8,116.944c-13.747-2.561-23.1,12.188-23.1,12.188S221.109,146.368,232.012,149.964Z" fill="#f5f5f5"/>
            <path id="Path_252" data-name="Path 252" d="M259.687,144.154c-7.805.532-14.561-.648-11.979-9.511s11.561-12.408,19.019-11.913c9.508.632,13.192,11.948,13.192,11.948S267.492,143.622,259.687,144.154Z" fill="#fafafa"/>
          </g>
        </g>
      </g>
    </g>
    <g id="Shadow">
      <ellipse id="_Path_" data-name="&lt;Path&gt;" cx="193.889" cy="11.323" rx="193.889" ry="11.323" transform="translate(56.111 404.915)" fill="#f5f5f5"/>
    </g>
    <g id="Desk">
      <g id="Group_142" data-name="Group 142">
        <g id="Group_123" data-name="Group 123">
          <rect id="Rectangle_106" data-name="Rectangle 106" width="339.754" height="12.193" transform="translate(79.51 251.085)" fill="#407bff"/>
          <rect id="Rectangle_107" data-name="Rectangle 107" width="90.927" height="12.193" transform="translate(79.51 251.085)" fill="#fff" opacity="0.3"/>
          <path id="Path_253" data-name="Path 253" d="M171.893,263.278h-7.914l4.145,152.777h7.538l4.145-152.777Z" fill="#407bff"/>
          <path id="Path_254" data-name="Path 254" d="M168.124,416.055h3.769V266.561l-7.786,1.423Z" fill="#fff" opacity="0.3"/>
          <path id="Path_255" data-name="Path 255" d="M96.919,263.278H89.006L93.15,416.055h7.538l4.145-152.777Z" fill="#407bff"/>
          <path id="Path_256" data-name="Path 256" d="M93.15,416.055h3.769V266.561l-7.786,1.423Z" fill="#fff" opacity="0.3"/>
          <path id="Path_257" data-name="Path 257" d="M401.854,263.278h-7.914l4.145,152.777h7.538l4.145-152.777Z" fill="#407bff"/>
          <path id="Path_258" data-name="Path 258" d="M398.085,416.055h3.769V266.561l-7.786,1.423Z" fill="#fff" opacity="0.3"/>
          <path id="Path_259" data-name="Path 259" d="M326.881,263.278h-7.914l4.145,152.777h7.538l4.145-152.777Z" fill="#407bff"/>
          <path id="Path_260" data-name="Path 260" d="M323.112,416.055h3.769V266.561l-7.786,1.423Z" fill="#fff" opacity="0.3"/>
        </g>
        <g id="Group_126" data-name="Group 126">
          <path id="Path_261" data-name="Path 261" d="M240.781,185.829H159.946a4.164,4.164,0,0,0-4.17,5.276l10.766,51.35a6.874,6.874,0,0,0,6.382,5.276h80.835a4.164,4.164,0,0,0,4.17-5.276L247.163,191.1A6.873,6.873,0,0,0,240.781,185.829Z" fill="#263238"/>
          <path id="Path_262" data-name="Path 262" d="M173.671,244.8a4.786,4.786,0,0,1-4.316-3.6l-10.766-51.35a2.35,2.35,0,0,1,.374-2,2.162,2.162,0,0,1,1.73-.73h80.836a4.79,4.79,0,0,1,4.317,3.6l10.766,51.35a2.359,2.359,0,0,1-.374,2,2.138,2.138,0,0,1-1.731.729Z" fill="#fff"/>
          <path id="Path_263" data-name="Path 263" d="M234.662,240.693l-10.2-48.652a1.982,1.982,0,0,1,1.94-2.388h13.116a1.98,1.98,0,0,1,1.939,1.575l10.2,48.651a1.981,1.981,0,0,1-1.939,2.388H236.6A1.981,1.981,0,0,1,234.662,240.693Z" fill="#407bff" opacity="0.4"/>
          <g id="Group_124" data-name="Group 124">
            <path id="Path_264" data-name="Path 264" d="M165.323,193.874l-.442-2.11h16.2l.442,2.11Z" fill="#407bff"/>
            <path id="Path_265" data-name="Path 265" d="M172.8,199.108l-.442-2.11h28.4l.442,2.11Z" fill="#ebebeb"/>
            <path id="Path_266" data-name="Path 266" d="M174.3,204.342l-.442-2.11h31.824l.442,2.11Z" fill="#ebebeb"/>
            <path id="Path_267" data-name="Path 267" d="M175.791,209.576l-.442-2.11h25.626l.442,2.11Z" fill="#ebebeb"/>
          </g>
          <g id="Group_125" data-name="Group 125">
            <path id="Path_268" data-name="Path 268" d="M170.245,218.07l-.442-2.11H180.05l.442,2.11Z" fill="#407bff"/>
            <path id="Path_269" data-name="Path 269" d="M177.723,223.3l-.442-2.11h12.485l.442,2.11Z" fill="#ebebeb"/>
            <path id="Path_270" data-name="Path 270" d="M193.2,223.3l-.442-2.11h12.485l.443,2.11Z" fill="#ebebeb"/>
            <path id="Path_271" data-name="Path 271" d="M179.218,228.538l-.442-2.11h42.2l.442,2.11Z" fill="#ebebeb"/>
            <path id="Path_272" data-name="Path 272" d="M180.713,233.772l-.442-2.11h32.177l.443,2.11Z" fill="#ebebeb"/>
          </g>
          <path id="Path_273" data-name="Path 273" d="M278.521,247.422H172.157c-2.9,0-4.778,1.648-4.17,3.663H284.9C284.3,249.07,281.423,247.422,278.521,247.422Z" fill="#263238"/>
        </g>
        <g id="Group_138" data-name="Group 138">
          <path id="Path_274" data-name="Path 274" d="M137.207,172.846l-10.2-48.652a1.982,1.982,0,0,1,1.94-2.388h82.6a1.98,1.98,0,0,1,1.939,1.575l10.2,48.652a1.981,1.981,0,0,1-1.939,2.388H139.146A1.982,1.982,0,0,1,137.207,172.846Z" fill="#407bff" opacity="0.1"/>
          <g id="Group_137" data-name="Group 137">
            <g id="Group_131" data-name="Group 131">
              <g id="Group_127" data-name="Group 127">
                <path id="Path_275" data-name="Path 275" d="M166.569,123.41H149.231l-.389-1.866H166.18Z" fill="#407bff"/>
                <path id="Path_276" data-name="Path 276" d="M163.749,126.385H156.79l-.389-1.866h6.959Z" fill="#407bff" opacity="0.4"/>
                <path id="Path_277" data-name="Path 277" d="M175.33,126.385H164.607l-.389-1.866h10.723Z" fill="#407bff" opacity="0.4"/>
                <path id="Path_278" data-name="Path 278" d="M180,129.36H157.41l-.389-1.866h22.594Z" fill="#407bff" opacity="0.4"/>
                <path id="Path_279" data-name="Path 279" d="M177.129,132.335h-19.1l-.389-1.866h19.1Z" fill="#407bff" opacity="0.4"/>
              </g>
              <path id="Path_280" data-name="Path 280" d="M189.8,163.949H177.641l.389,1.866h12.158Z" fill="#407bff" opacity="0.4"/>
              <g id="Group_128" data-name="Group 128">
                <path id="Path_281" data-name="Path 281" d="M174.638,159.865H156.831L156.442,158h17.807Z" fill="#407bff"/>
                <path id="Path_282" data-name="Path 282" d="M181.8,166.923H165.241l.389,1.866h16.562Z" fill="#407bff" opacity="0.4"/>
                <path id="Path_283" data-name="Path 283" d="M176.779,163.949H164.621l.389,1.866h12.158Z" fill="#407bff" opacity="0.4"/>
                <path id="Path_284" data-name="Path 284" d="M188.316,160.974H164l.389,1.866h24.315Z" fill="#407bff" opacity="0.4"/>
              </g>
              <g id="Group_129" data-name="Group 129">
                <path id="Path_285" data-name="Path 285" d="M165.962,109.532H146.338l-.389-1.866h19.624Z" fill="#407bff"/>
                <path id="Path_286" data-name="Path 286" d="M175.646,116.591H154.011l.389,1.866h21.635Z" fill="#407bff" opacity="0.4"/>
                <path id="Path_287" data-name="Path 287" d="M171.317,113.616H153.391l.389,1.866h17.926Z" fill="#407bff" opacity="0.4"/>
                <path id="Path_288" data-name="Path 288" d="M172.514,110.642H152.77l.389,1.866H172.9Z" fill="#407bff" opacity="0.4"/>
              </g>
              <g id="Group_130" data-name="Group 130">
                <path id="Path_289" data-name="Path 289" d="M165.736,137.175H152.1l-.389-1.866h13.635Z" fill="#407bff"/>
                <path id="Path_290" data-name="Path 290" d="M187.156,144.234H160.511l.389,1.866h26.645Z" fill="#407bff" opacity="0.4"/>
                <path id="Path_291" data-name="Path 291" d="M170.93,141.259H159.891l.389,1.866h11.039Z" fill="#407bff" opacity="0.4"/>
                <path id="Path_292" data-name="Path 292" d="M182.91,141.259H171.871l.389,1.866H183.3Z" fill="#407bff" opacity="0.4"/>
                <path id="Path_293" data-name="Path 293" d="M183.586,138.284H159.271l.389,1.866h24.315Z" fill="#407bff" opacity="0.4"/>
                <path id="Path_294" data-name="Path 294" d="M183.539,153.158H162.372l.389,1.866h21.167Z" fill="#407bff" opacity="0.4"/>
                <path id="Path_295" data-name="Path 295" d="M167.906,150.184h-6.155l.389,1.866H168.3Z" fill="#407bff" opacity="0.4"/>
                <path id="Path_296" data-name="Path 296" d="M177.54,150.184h-8.786l.389,1.866h8.786Z" fill="#407bff" opacity="0.4"/>
                <path id="Path_297" data-name="Path 297" d="M185.446,147.209H161.131l.389,1.866h24.315Z" fill="#407bff" opacity="0.4"/>
              </g>
            </g>
            <g id="Group_135" data-name="Group 135">
              <g id="Group_132" data-name="Group 132">
                <path id="Path_298" data-name="Path 298" d="M204.6,146.71h-8.713l-.389-1.866h8.713Z" fill="#407bff" opacity="0.4"/>
                <path id="Path_299" data-name="Path 299" d="M219.1,146.71H205.679l-.389-1.866h13.424Z" fill="#407bff" opacity="0.4"/>
                <path id="Path_300" data-name="Path 300" d="M224.8,149.685H196.512l-.389-1.866H224.41Z" fill="#407bff" opacity="0.4"/>
                <path id="Path_301" data-name="Path 301" d="M221.043,152.66H197.132l-.389-1.866h23.911Z" fill="#407bff" opacity="0.4"/>
              </g>
              <g id="Group_133" data-name="Group 133">
                <path id="Path_302" data-name="Path 302" d="M231.749,134.875H204.662l.389,1.866h27.087Z" fill="#407bff" opacity="0.4"/>
                <path id="Path_303" data-name="Path 303" d="M226.485,131.9H204.042l.389,1.866h22.443Z" fill="#407bff" opacity="0.4"/>
                <path id="Path_304" data-name="Path 304" d="M222.427,128.925H197.709l.389,1.866h24.718Z" fill="#407bff"/>
              </g>
              <g id="Group_134" data-name="Group 134">
                <path id="Path_305" data-name="Path 305" d="M232.972,164.559H199.613l.389,1.866h33.359Z" fill="#407bff" opacity="0.4"/>
                <path id="Path_306" data-name="Path 306" d="M212.813,161.585h-13.82l.389,1.866H213.2Z" fill="#407bff" opacity="0.4"/>
                <path id="Path_307" data-name="Path 307" d="M227.811,161.585h-13.82l.389,1.866H228.2Z" fill="#407bff" opacity="0.4"/>
                <path id="Path_308" data-name="Path 308" d="M228.814,158.61H198.372l.389,1.866H229.2Z" fill="#407bff" opacity="0.4"/>
                <path id="Path_309" data-name="Path 309" d="M227.974,173.484h-26.5l.389,1.866h26.5Z" fill="#407bff" opacity="0.4"/>
                <path id="Path_310" data-name="Path 310" d="M208.559,170.509h-7.706l.389,1.866h7.706Z" fill="#407bff" opacity="0.4"/>
                <path id="Path_311" data-name="Path 311" d="M220.62,170.509h-11l.389,1.866h11Z" fill="#407bff" opacity="0.4"/>
                <path id="Path_312" data-name="Path 312" d="M230.675,167.534H200.233l.389,1.866h30.442Z" fill="#407bff" opacity="0.4"/>
              </g>
            </g>
            <g id="Group_136" data-name="Group 136">
              <path id="Path_313" data-name="Path 313" d="M149.6,175.791H128.864l.389,1.866h20.736Z" fill="#407bff" opacity="0.4"/>
              <path id="Path_314" data-name="Path 314" d="M143.465,172.817H128.244l.389,1.866h15.221Z" fill="#407bff" opacity="0.4"/>
              <path id="Path_315" data-name="Path 315" d="M159.766,172.817H144.545l.389,1.866h15.221Z" fill="#407bff" opacity="0.4"/>
              <path id="Path_316" data-name="Path 316" d="M158.066,169.842H127.624l.389,1.866h30.442Z" fill="#407bff" opacity="0.4"/>
            </g>
          </g>
        </g>
        <g id="Group_139" data-name="Group 139">
          <path id="Path_317" data-name="Path 317" d="M390.951,231.662H378.113l1.5,19.423h9.847Z" fill="#407bff"/>
          <path id="Path_318" data-name="Path 318" d="M390.951,231.662H378.113l1.5,19.423h9.847Z" fill="#fff" opacity="0.4"/>
        </g>
        <g id="Group_141" data-name="Group 141">
          <path id="Path_319" data-name="Path 319" d="M111.134,218.173h18.458l-6.3,32.912H104.833Z" fill="#263238"/>
          <path id="Path_320" data-name="Path 320" d="M134.643,209.35H108.571l7.3,41.735H141.94Z" fill="#407bff"/>
          <g id="Group_140" data-name="Group 140">
            <path id="Path_321" data-name="Path 321" d="M107.029,209.35h1.542l7.3,41.735h-1.542Z" fill="#407bff"/>
            <path id="Path_322" data-name="Path 322" d="M107.029,209.35h1.542l7.3,41.735h-1.542Z" opacity="0.3"/>
          </g>
          <path id="Path_323" data-name="Path 323" d="M119.617,246.624l-5.737-32.813H130.9l5.737,32.813Z" fill="#fff"/>
          <path id="Path_324" data-name="Path 324" d="M135.824,246.624l-5.736-32.813h.808l5.737,32.813Z" fill="#407bff" opacity="0.6"/>
        </g>
      </g>
    </g>
    <g id="Character">
      <g id="Group_156" data-name="Group 156">
        <g id="Group_151" data-name="Group 151">
          <path id="Path_325" data-name="Path 325" d="M263.77,155.963c.37.8.246,1.648-.278,1.89s-1.249-.211-1.62-1.012-.246-1.648.278-1.89S263.4,155.162,263.77,155.963Z" fill="#263238"/>
          <path id="Path_326" data-name="Path 326" d="M264.09,157.577s.316,5.466-.658,8.625c2.03.668,4.161-1.052,4.161-1.052Z" fill="#ff5652"/>
          <path id="Path_327" data-name="Path 327" d="M263.867,149.393a.512.512,0,0,1-.3.114,4.113,4.113,0,0,0-3.292,1.793.519.519,0,0,1-.9-.519,5.146,5.146,0,0,1,4.132-2.309.518.518,0,0,1,.355.921Z" fill="#263238"/>
          <path id="Path_328" data-name="Path 328" d="M293.22,154.756c3.091,10.7,6.536,19.02,10.754,23.742,0,0,.075,8.414-14.258,12.415-15.761,4.4-9.716-5.721-9.716-5.721,8.028-4.456,7.238-11.177,1.218-13.734Z" fill="#ff8b7b"/>
          <path id="Path_329" data-name="Path 329" d="M307.314,176.452c-.285-3.916-.649-8.375-3.065-8.488-2.658-.125-18.055,6.754-21.346,11.606s3.134,9.6,3.134,9.6Z" fill="#263238"/>
          <g id="Group_144" data-name="Group 144">
            <path id="Path_330" data-name="Path 330" d="M275.787,237.007l-13.3-.438.236,11.139s11.6-1.195,12.115-4.244Z" fill="#ff8b7b"/>
            <path id="Path_331" data-name="Path 331" d="M255.459,242.034l-1.395,5.7,8.661-.022-.236-11.14Z" fill="#ff8b7b"/>
            <g id="Group_143" data-name="Group 143">
              <path id="Path_332" data-name="Path 332" d="M329.172,190.71l-.277,2.857c-.091.919-.219,1.825-.335,2.733-.234,1.815-.519,3.618-.831,5.42-.6,3.609-1.383,7.2-2.274,10.809A111.442,111.442,0,0,1,322.13,223.4c-.691,1.829-1.408,3.657-2.274,5.521a47.063,47.063,0,0,1-3,5.649c-.277.47-.615.96-.941,1.442s-.655.962-1.044,1.457-.722.967-1.177,1.47l-.652.74a10.493,10.493,0,0,1-.741.776,22.882,22.882,0,0,1-6.925,4.656,40.99,40.99,0,0,1-12.43,3.148c-1.954.232-3.88.322-5.778.364s-3.773.011-5.632-.094c-1.858-.084-3.7-.265-5.535-.478-1.856-.229-3.6-.511-5.553-.9l.32-10.448a161.556,161.556,0,0,0,18.9-4.506,39.418,39.418,0,0,0,4.061-1.561,18.354,18.354,0,0,0,3.222-1.743,4.443,4.443,0,0,0,1.454-1.42l.3-.459c.118-.149.245-.411.373-.617a8.1,8.1,0,0,0,.39-.712c.131-.255.267-.491.4-.789a52.264,52.264,0,0,0,2.889-7.932c.817-2.942,1.6-6.016,2.215-9.176.678-3.144,1.217-6.368,1.768-9.6l.761-4.861.683-4.731Z" fill="#407bff"/>
              <path id="Path_333" data-name="Path 333" d="M329.172,190.71l-.277,2.857c-.091.919-.219,1.825-.335,2.733-.234,1.815-.519,3.618-.831,5.42-.6,3.609-1.383,7.2-2.274,10.809A111.442,111.442,0,0,1,322.13,223.4c-.691,1.829-1.408,3.657-2.274,5.521a47.063,47.063,0,0,1-3,5.649c-.277.47-.615.96-.941,1.442s-.655.962-1.044,1.457-.722.967-1.177,1.47l-.652.74a10.493,10.493,0,0,1-.741.776,22.882,22.882,0,0,1-6.925,4.656,40.99,40.99,0,0,1-12.43,3.148c-1.954.232-3.88.322-5.778.364s-3.773.011-5.632-.094c-1.858-.084-3.7-.265-5.535-.478-1.856-.229-3.6-.511-5.553-.9l.32-10.448a161.556,161.556,0,0,0,18.9-4.506,39.418,39.418,0,0,0,4.061-1.561,18.354,18.354,0,0,0,3.222-1.743,4.443,4.443,0,0,0,1.454-1.42l.3-.459c.118-.149.245-.411.373-.617a8.1,8.1,0,0,0,.39-.712c.131-.255.267-.491.4-.789a52.264,52.264,0,0,0,2.889-7.932c.817-2.942,1.6-6.016,2.215-9.176.678-3.144,1.217-6.368,1.768-9.6l.761-4.861.683-4.731Z" opacity="0.2"/>
            </g>
          </g>
          <g id="Group_145" data-name="Group 145">
            <path id="Path_334" data-name="Path 334" d="M270.123,203.957a326.632,326.632,0,0,1,8.331,65.148h58.554c.325-7.239-.9-47.964-6.792-77.459a20.387,20.387,0,0,0-24.4-15.964l-.28.064c-7.3,1.664-17.8,4.347-23.974,6.693l-.252.1A18.337,18.337,0,0,0,270.123,203.957Z" fill="#407bff"/>
          </g>
          <path id="Path_335" data-name="Path 335" d="M273.929,222.7c.464,2.807.929,5.783,1.361,8.906,4.791-5,6.31-20.322,6.31-20.322Z" opacity="0.2"/>
          <g id="Group_146" data-name="Group 146">
            <path id="Path_336" data-name="Path 336" d="M225.289,237.727l-13.248-1.242-.438,11.134a12.48,12.48,0,0,0,12.35-3.5Z" fill="#ff8b7b"/>
            <path id="Path_337" data-name="Path 337" d="M205.683,239.772l-4.266,7.65,10.186.2.438-11.134Z" fill="#ff8b7b"/>
            <path id="Path_338" data-name="Path 338" d="M292.1,198.867c-.925,1.756-1.741,3.3-2.66,4.9-.9,1.584-1.807,3.16-2.755,4.711q-2.815,4.673-5.889,9.21a154.367,154.367,0,0,1-13.71,17.643,75.255,75.255,0,0,1-8.691,8.263c-.394.333-.852.658-1.278.985-.445.33-.808.63-1.456,1.034a20.191,20.191,0,0,1-1.76,1.05c-.592.334-1.173.612-1.765.875a31.638,31.638,0,0,1-6.883,2.089,43.455,43.455,0,0,1-12.522.283,53.847,53.847,0,0,1-5.8-1.033c-.948-.218-1.886-.466-2.82-.752-.96-.274-1.806-.59-2.881-.965l1.655-10.321c6.278-.853,13.066-1.945,17.747-4.058a12.718,12.718,0,0,0,2.913-1.677,6.4,6.4,0,0,0,.943-.834c.078-.089.38-.359.619-.578s.495-.431.746-.692a73.18,73.18,0,0,0,6.009-6.749,194.363,194.363,0,0,0,11.269-16.164c1.8-2.829,3.555-5.709,5.3-8.6l2.585-4.348,2.49-4.264Z" fill="#407bff"/>
          </g>
          <path id="Path_339" data-name="Path 339" d="M276.024,407.6H265.077l-5.5-25.352h10.947Z" fill="#ff8b7b"/>
          <path id="Path_340" data-name="Path 340" d="M264.468,405.257h12.3a.956.956,0,0,1,.933.748l2.162,9.731a1.609,1.609,0,0,1-1.6,1.946c-4.294-.074-6.38-.325-11.788-.325-3.328,0-7.6.345-12.193.345-4.494,0-5.2-4.543-3.314-4.955,8.435-1.845,9.027-4.389,11.727-6.817A2.655,2.655,0,0,1,264.468,405.257Z" fill="#263238"/>
          <g id="Group_147" data-name="Group 147" opacity="0.2">
            <path id="Path_341" data-name="Path 341" d="M270.526,382.259H259.574l3.053,14.038,10.741-.97Z"/>
          </g>
          <path id="Path_342" data-name="Path 342" d="M289.714,141.9c3.948,10.122,6.774,15.846,4.139,23.2-3.962,11.058-18.2,12.17-25.089,3.432-6.205-7.865-11.619-23.1-3.8-31.47A14.819,14.819,0,0,1,289.714,141.9Z" fill="#ff8b7b"/>
          <path id="Path_343" data-name="Path 343" d="M270.489,157.061c-1.644,2.2-2.9,3.869-2.9,3.869s-3.37-8.37-2.081-12.208c-1.641-3.251-4.951,1.539-6.2-4.792s4.154-13.13,6.2-14.537a7.431,7.431,0,0,1,.273,2.272,28.073,28.073,0,0,1,19.608-6.2,6.77,6.77,0,0,0-1.1,2.945s11.87,2.037,14.567,8.72a12.96,12.96,0,0,0-2.99-1.055,14.509,14.509,0,0,1,2.4,10.727,109.852,109.852,0,0,0-1.349,16.53c.118,2.838-7.679,8.266-12.427,2.462S270.489,157.061,270.489,157.061Z" fill="#263238"/>
          <path id="Path_344" data-name="Path 344" d="M275.444,154.881a11.082,11.082,0,0,1-.505,7.1c-1.271,2.943-3.876,2.272-5.174-.34-1.167-2.351-1.913-6.716.156-8.808C271.96,150.776,274.661,152.049,275.444,154.881Z" fill="#ff8b7b"/>
          <g id="Group_148" data-name="Group 148">
            <path id="Path_345" data-name="Path 345" d="M296,269.105s-50.838,18.431-52.337,42.827c-2.761,44.928,15.617,80.5,15.617,80.5l16.841-1.8s-2.995-14.46-5.232-55.164c-2.811-51.146,83.994,1.2,66.116-66.363Z" fill="#407bff"/>
            <path id="Path_346" data-name="Path 346" d="M296,269.105s-50.838,18.431-52.337,42.827c-2.761,44.928,15.617,80.5,15.617,80.5l16.841-1.8s-2.995-14.46-5.232-55.164c-2.811-51.146,83.994,1.2,66.116-66.363Z" fill="#fff" opacity="0.5"/>
          </g>
          <path id="Path_347" data-name="Path 347" d="M254.618,386.233c-.08.008,2.68,7.474,2.68,7.474l21.027-2.058-1.055-6.8Z" fill="#407bff"/>
          <g id="Group_149" data-name="Group 149">
            <path id="Path_348" data-name="Path 348" d="M228.73,408.845H217.783l-3.2-25.352h10.947Z" fill="#ff8b7b"/>
            <path id="Path_349" data-name="Path 349" d="M217.7,405.253l11.955-.016a.953.953,0,0,1,.933.746l2.176,9.728a1.592,1.592,0,0,1-1.572,1.949c-4.313-.067-10.545-.311-15.965-.3-6.338.009-7.553.356-14.986.367-4.494.006-5.748-4.536-3.867-4.95,8.562-1.885,11.3-2.09,18.69-6.663A5.067,5.067,0,0,1,217.7,405.253Z" fill="#263238"/>
            <path id="Path_350" data-name="Path 350" d="M214.587,383.5l1.74,13.808,10.859-.741L225.539,383.5Z" opacity="0.2"/>
          </g>
          <g id="Group_150" data-name="Group 150">
            <path id="Path_351" data-name="Path 351" d="M278.454,269.105s-83.307,7.388-82.408,49.226c.935,43.517,17.191,72.869,17.191,72.869H229.5s-3.084-22.575-2.537-65.419c.164-12.835,26.1-17.076,51.428-18.573,21.88-1.294,42.36-13.765,50.86-33.968l1.739-4.135Z" fill="#407bff"/>
            <path id="Path_352" data-name="Path 352" d="M278.454,269.105s-83.307,7.388-82.408,49.226c.935,43.517,17.191,72.869,17.191,72.869H229.5s-3.084-22.575-2.537-65.419c.164-12.835,26.1-17.076,51.428-18.573,21.88-1.294,42.36-13.765,50.86-33.968l1.739-4.135Z" fill="#fff" opacity="0.5"/>
          </g>
          <path id="Path_353" data-name="Path 353" d="M209.433,386.825c-.075.006,2.788,7.52,2.788,7.52l19.634-1.4-1.145-6.807Z" fill="#407bff"/>
        </g>
        <g id="Group_155" data-name="Group 155">
          <g id="Group_152" data-name="Group 152">
            <path id="Path_354" data-name="Path 354" d="M300.316,222.081l-10.567,40.732a127.313,127.313,0,0,0-4.062,31.944v18.934c0,4.78,3.524,8.655,7.87,8.655h54.187c4.347,0,7.87-3.875,7.87-8.655V294.757a127.313,127.313,0,0,1,4.063-31.944l9.334-35.983c1.434-5.528-2.341-11.03-7.568-11.03H307.884A8.018,8.018,0,0,0,300.316,222.081Z" fill="#263238"/>
            <path id="Path_355" data-name="Path 355" d="M232.928,302.626l1.774,10.1c.933,5.314,5.607,9.621,10.438,9.621h60.231c4.832,0,7.992-4.307,7.059-9.621l-1.774-10.1c-1.061-6.046-6.379-10.947-11.877-10.947H240.96C235.462,291.679,231.867,296.58,232.928,302.626Z" fill="#263238"/>
          </g>
          <g id="Group_154" data-name="Group 154">
            <path id="Path_356" data-name="Path 356" d="M311.169,332.49H279.618l-3.081-10.143H314.25Z" fill="#407bff"/>
            <g id="Group_153" data-name="Group 153">
              <rect id="Rectangle_108" data-name="Rectangle 108" width="11.274" height="75.413" transform="translate(289.757 332.49)" fill="#407bff"/>
              <path id="Path_357" data-name="Path 357" d="M301.03,407.9H289.757V334.3l11.274,1.147Z" fill="#fff" opacity="0.7"/>
              <path id="Path_358" data-name="Path 358" d="M298.28,407.9h-2.693V334.895l2.693.274Z" fill="#fff" opacity="0.7"/>
            </g>
            <path id="Path_359" data-name="Path 359" d="M321.314,419.556H269.473a1.435,1.435,0,0,1-.848-2.592l8.229-6.033a23.033,23.033,0,0,1,13.616-4.456h9.847a23.031,23.031,0,0,1,13.616,4.456l8.229,6.033A1.435,1.435,0,0,1,321.314,419.556Z" fill="#407bff"/>
          </g>
        </g>
      </g>
    </g>
  </g>
</svg>
